<svg width="220" height="220" viewBox="0 0 220 220" fill="none" xmlns="http://www.w3.org/2000/svg">
  <path
    d="M150 43H112C76 43 47 72 47 108V146C47 182 76 211 112 211H150C177 211 199 189 199 162H167C167 171 159 179 150 179H112C94 179 79 164 79 146V108C79 90 94 75 112 75H150C159 75 167 83 167 92H199C199 65 177 43 150 43Z"
    stroke="black"
    stroke-width="5"
    stroke-linejoin="round"
  />
  <path
    d="M162 43H124C88 43 59 72 59 108V146C59 182 88 211 124 211H162C189 211 211 189 211 162H179C179 171 171 179 162 179H124C106 179 91 164 91 146V108C91 90 106 75 124 75H162C171 75 179 83 179 92H211C211 65 189 43 162 43Z"
    stroke="black"
    stroke-width="5"
    stroke-linejoin="round"
  />
  <path
    d="M168 83H130C112 83 97 98 97 116V138C97 156 112 171 130 171H168C179 171 188 162 188 151H157C157 154 154 157 151 157H130C120 157 111 148 111 138V116C111 106 120 97 130 97H151C154 97 157 100 157 103H188C188 92 179 83 168 83Z"
    fill="white"
    stroke="black"
    stroke-width="5"
    stroke-linejoin="round"
  />
</svg>
